HIERARCHY
ROOT hip
{
	OFFSET 0.000000 0.000000 0.000000
	CHANNELS 6 Xposition Yposition Zposition Xrotation Zrotation Yrotation 
	JOINT abdomen
	{
		OFFSET 0.000000 3.422050 0.000000
		CHANNELS 3 Xrotation Zrotation Yrotation 
		JOINT chest
		{
			OFFSET 0.000000 8.486693 -0.684411
			CHANNELS 3 Xrotation Zrotation Yrotation 
			JOINT neck
			{
				OFFSET 0.000000 10.266162 -0.273764
				CHANNELS 3 Xrotation Zrotation Yrotation 
				JOINT head
				{
					OFFSET 0.000000 3.148285 0.000000
					CHANNELS 3 Xrotation Zrotation Yrotation 
					End Site
					{
						OFFSET 0.000000 3.148289 0.000000
					}
				}
			}
			JOINT lCollar
			{
				OFFSET 3.422053 6.707223 -0.821293
				CHANNELS 3 Yrotation Zrotation Xrotation 
				JOINT lShldr
				{
					OFFSET 3.285171 0.000000 0.000000
					CHANNELS 3 Zrotation Yrotation Xrotation 
					JOINT lForeArm
					{
						OFFSET 10.129278 0.000000 0.000000
						CHANNELS 3 Yrotation Zrotation Xrotation 
						JOINT lHand
						{
							OFFSET 8.486692 0.000000 0.000000
							CHANNELS 3 Zrotation Yrotation Xrotation 
							End Site
							{
								OFFSET 4.106464 0.000000 0.000000
							}
						}
					}
				}
			}
			JOINT rCollar
			{
				OFFSET -3.558935 6.707223 -0.821293
				CHANNELS 3 Yrotation Zrotation Xrotation 
				JOINT rShldr
				{
					OFFSET -3.148289 0.000000 0.000000
					CHANNELS 3 Zrotation Yrotation Xrotation 
					JOINT rForeArm
					{
						OFFSET -10.266159 0.000000 0.000000
						CHANNELS 3 Yrotation Zrotation Xrotation 
						JOINT rHand
						{
							OFFSET -8.349810 0.000000 0.000000
							CHANNELS 3 Zrotation Yrotation Xrotation 
							End Site
							{
								OFFSET -4.106464 0.000000 0.000000
							}
						}
					}
				}
			}
		}
	}
	JOINT lThigh
	{
		OFFSET 5.338403 -1.642589 1.368821
		CHANNELS 3 Xrotation Zrotation Yrotation 
		JOINT lShin
		{
			OFFSET -2.053232 -20.121670 0.000000
			CHANNELS 3 Xrotation Zrotation Yrotation 
			JOINT lFoot
			{
				OFFSET 0.000000 -19.300380 -1.231939
				CHANNELS 3 Xrotation Yrotation Zrotation 
				End Site
				{
					OFFSET 0.000000 -2.463878 4.653993
				}
			}
		}
	}
	JOINT rThigh
	{
		OFFSET -5.338403 -1.642589 1.368821
		CHANNELS 3 Xrotation Zrotation Yrotation 
		JOINT rShin
		{
			OFFSET 2.053232 -20.121670 0.000000
			CHANNELS 3 Xrotation Zrotation Yrotation 
			JOINT rFoot
			{
				OFFSET 0.000000 -19.300380 -1.231939
				CHANNELS 3 Xrotation Yrotation Zrotation 
				End Site
				{
					OFFSET 0.000000 -2.463878 4.653993
				}
			}
		}
	}
}
MOTION
Frames: 15
Frame Time: 0.071282
0.000000 9.997749 0.000000 -26.001497 0.000000 0.000000 29.996357 1.998771 21.997284 19.996607 -0.002475 6.997691 -0.271013 -0.945988 -0.003008 -6.828394 -0.597284 11.282186 0.035725 0.000000 0.000000 14.001234 -49.002811 -22.001631 -14.000520 0.000000 0.000000 0.049826 -0.061737 -0.294572 0.000000 0.000000 0.000000 -1.902263 56.857956 -42.986221 73.472801 4.997089 -4.998839 0.000000 0.000000 0.000000 -110.024002 0.000000 0.000000 130.994461 -0.000002 0.000001 0.033981 0.000000 0.000000 -76.716942 -16.001543 0.000820 28.352970 -0.000000 0.000000 32.035011 0.000000 0.000000 
0.000000 9.997749 0.000000 -26.001497 0.000000 0.000000 29.996357 1.998772 21.997282 19.996607 -0.002475 6.997691 -0.271013 -0.945988 -0.003008 -6.998317 -0.576427 11.691649 0.035965 0.000000 0.000000 14.001234 -49.002811 -22.001631 -14.000520 0.000000 0.000000 0.050162 -0.062151 -0.296491 0.000000 0.000000 0.000000 -1.371190 57.759357 -43.794613 71.463585 4.997068 -4.998930 0.000000 0.000000 0.000000 -110.024002 0.000000 0.000000 130.994461 -0.000002 0.000001 0.034209 0.000000 0.000000 -76.057632 -16.001541 0.000802 26.399920 -0.000000 0.000000 32.651009 0.000000 0.000000 
0.000000 9.997749 0.000000 -26.001497 0.000000 0.000000 29.996357 1.998772 21.997282 19.996607 -0.002475 6.997691 -0.271013 -0.945988 -0.003008 -7.167995 -0.554369 12.100833 0.036204 0.000000 0.000000 14.001234 -49.002811 -22.001631 -14.000520 0.000000 0.000000 0.050497 -0.062564 -0.298409 0.000000 0.000000 0.000000 -0.851522 58.663704 -44.606815 69.458076 4.997050 -4.999022 0.000000 0.000000 0.000000 -110.024002 0.000000 0.000000 130.994461 -0.000002 0.000001 0.034437 0.000000 0.000000 -75.399124 -16.001534 0.000785 24.469263 -0.000000 0.000000 33.266361 0.000000 0.000000 
0.000000 9.997749 0.000000 -26.001497 0.000000 0.000000 29.996357 1.998772 21.997282 19.996607 -0.002475 6.997691 -0.271013 -0.945988 -0.003008 -7.337420 -0.531112 12.509721 0.036444 0.000000 0.000000 14.001234 -49.002811 -22.001631 -14.000520 0.000000 0.000000 0.050833 -0.062978 -0.300328 0.000000 0.000000 0.000000 -0.344045 59.570499 -45.423336 67.457481 4.997035 -4.999113 0.000000 0.000000 0.000000 -110.024002 0.000000 0.000000 130.994461 -0.000002 0.000001 0.034665 0.000000 0.000000 -74.741447 -16.001530 0.000767 22.561707 -0.000000 0.000000 33.881042 0.000000 0.000000 
0.000000 9.997749 0.000000 -26.001497 0.000000 0.000000 29.996357 1.998772 21.997282 19.996607 -0.002475 6.997691 -0.271013 -0.945988 -0.003008 -7.506575 -0.506662 12.918303 0.036684 0.000000 0.000000 14.001234 -49.002811 -22.001631 -14.000520 0.000000 0.000000 0.051168 -0.063391 -0.302246 0.000000 0.000000 0.000000 0.150383 60.479195 -46.244724 65.463020 4.997022 -4.999205 0.000000 0.000000 0.000000 -110.024002 0.000000 0.000000 130.994461 -0.000002 0.000001 0.034893 0.000000 0.000000 -74.084648 -16.001526 0.000750 20.677855 -0.000000 0.000000 34.494995 0.000000 0.000000 
0.000000 9.997749 0.000000 -26.001497 0.000000 0.000000 29.996357 1.998772 21.997282 19.996607 -0.002475 6.997691 -0.271013 -0.945988 -0.003008 -7.675446 -0.481023 13.326557 0.036924 0.000000 0.000000 14.001234 -49.002811 -22.001631 -14.000520 0.000000 0.000000 0.051504 -0.063805 -0.304165 0.000000 0.000000 0.000000 0.630832 61.389282 -47.071644 63.475838 4.997014 -4.999297 0.000000 0.000000 0.000000 -110.024002 0.000000 0.000000 130.994461 -0.000002 0.000001 0.035121 0.000000 0.000000 -73.428757 -16.001518 0.000732 18.818293 -0.000000 0.000000 35.108204 0.000000 0.000000 
0.000000 9.997749 0.000000 -26.001497 0.000000 0.000000 29.996357 1.998772 21.997282 19.996607 -0.002475 6.997691 -0.271013 -0.945988 -0.003008 -7.844021 -0.454199 13.734467 0.037164 0.000000 0.000000 14.001234 -49.002811 -22.001631 -14.000520 0.000000 0.000000 0.051839 -0.064218 -0.306083 0.000000 0.000000 0.000000 1.096281 62.300301 -47.904900 61.497089 4.997009 -4.999389 0.000000 0.000000 0.000000 -110.024002 0.000000 0.000000 130.994461 -0.000002 0.000001 0.035349 0.000000 0.000000 -72.773827 -16.001513 0.000714 16.983498 -0.000000 0.000000 35.720638 0.000000 0.000000 
0.000000 9.997749 0.000000 -26.001497 0.000000 0.000000 29.996357 1.998772 21.997282 19.996607 -0.002475 6.997691 -0.271013 -0.945988 -0.003008 -8.012287 -0.426194 14.142026 0.037403 0.000000 0.000000 14.001234 -49.002811 -22.001631 -14.000520 0.000000 0.000000 0.052175 -0.064632 -0.308002 0.000000 0.000000 0.000000 1.545577 63.211735 -48.745392 59.527912 4.997006 -4.999480 0.000000 0.000000 0.000000 -110.024002 0.000000 0.000000 130.994461 -0.000002 0.000001 0.035577 0.000000 0.000000 -72.119911 -16.001509 0.000698 15.173909 -0.000000 0.000000 36.332237 0.000000 0.000000 
0.000000 9.997749 0.000000 -26.001497 0.000000 0.000000 29.996357 1.998772 21.997282 19.996607 -0.002475 6.997691 -0.271013 -0.945988 -0.003008 -8.180233 -0.397015 14.549212 0.037643 0.000000 0.000000 14.001234 -49.002811 -22.001631 -14.000520 0.000000 0.000000 0.052510 -0.065045 -0.309920 0.000000 0.000000 0.000000 1.977477 64.123001 -49.594078 57.569363 4.997005 -4.999570 0.000000 0.000000 0.000000 -110.024002 0.000000 0.000000 130.994461 -0.000002 0.000001 0.035805 0.000000 0.000000 -71.467018 -16.001497 0.000681 13.389885 -0.000000 0.000000 36.943001 0.000000 0.000000 
0.000000 9.997749 0.000000 -26.001497 0.000000 0.000000 29.996357 1.998772 21.997282 19.996607 -0.002475 6.997691 -0.271013 -0.945988 -0.003008 -8.347843 -0.366665 14.956013 0.037883 0.000000 0.000000 14.001234 -49.002811 -22.001631 -14.000520 0.000000 0.000000 0.052846 -0.065459 -0.311839 0.000000 0.000000 0.000000 2.390573 65.033676 -50.452217 55.622509 4.997011 -4.999661 0.000000 0.000000 0.000000 -110.024002 0.000000 0.000000 130.994461 -0.000002 0.000001 0.036033 0.000000 0.000000 -70.815208 -16.001492 0.000663 11.631744 -0.000000 0.000000 37.552887 0.000000 0.000000 
0.000000 9.997749 0.000000 -26.001497 0.000000 0.000000 29.996357 1.998772 21.997282 19.996607 -0.002475 6.997691 -0.271013 -0.945988 -0.003008 -8.515107 -0.335150 15.362413 0.038123 0.000000 0.000000 14.001234 -49.002811 -22.001631 -14.000520 0.000000 0.000000 0.053181 -0.065872 -0.313757 0.000000 0.000000 0.000000 2.783275 65.943192 -51.321129 53.688362 4.997017 -4.999751 0.000000 0.000000 0.000000 -110.024002 0.000000 0.000000 130.994461 -0.000002 0.000001 0.036261 0.000000 0.000000 -70.164528 -16.001488 0.000647 9.899731 -0.000000 0.000000 38.161858 0.000000 0.000000 
0.000000 9.997749 0.000000 -26.001497 0.000000 0.000000 29.996357 1.998772 21.997282 19.996607 -0.002475 6.997691 -0.271013 -0.945988 -0.003008 -8.682013 -0.302477 15.768400 0.038362 0.000000 0.000000 14.001234 -49.002811 -22.001631 -14.000520 0.000000 0.000000 0.053517 -0.066285 -0.315676 0.000000 0.000000 0.000000 3.153809 66.851089 -52.202435 51.767872 4.997026 -4.999839 0.000000 0.000000 0.000000 -110.024002 0.000000 0.000000 130.994461 -0.000002 0.000001 0.036489 0.000000 0.000000 -69.514999 -16.001482 0.000630 8.194042 -0.000000 0.000000 38.769882 0.000000 0.000000 
0.000000 9.997749 0.000000 -26.001497 0.000000 0.000000 29.996357 1.998772 21.997282 19.996607 -0.002475 6.997691 -0.271013 -0.945988 -0.003008 -8.848543 -0.268650 16.173958 0.038602 0.000000 0.000000 14.001234 -49.002811 -22.001631 -14.000520 0.000000 0.000000 0.053853 -0.066699 -0.317594 0.000000 0.000000 0.000000 3.500127 67.756874 -53.098000 49.861988 4.997041 -4.999928 0.000000 0.000000 0.000000 -110.024002 0.000000 0.000000 130.994461 -0.000002 0.000001 0.036717 0.000000 0.000000 -68.866661 -16.001474 0.000614 6.514819 -0.000000 0.000000 39.376926 0.000000 0.000000 
0.000000 9.997749 0.000000 -26.001497 0.000000 0.000000 29.996357 1.998772 21.997282 19.996607 -0.002475 6.997691 -0.271013 -0.945988 -0.003008 -9.014691 -0.233674 16.579067 0.038842 0.000000 0.000000 14.001234 -49.002811 -22.001631 -14.000520 0.000000 0.000000 0.054188 -0.067112 -0.319513 0.000000 0.000000 0.000000 3.819928 68.660057 -54.009949 47.971542 4.997054 -5.000013 0.000000 0.000000 0.000000 -110.024002 0.000000 0.000000 130.994461 -0.000002 0.000001 0.036945 0.000000 0.000000 -68.219551 -16.001465 0.000596 4.862164 -0.000000 0.000000 39.982952 0.000000 0.000000 
0.000000 9.997749 0.000000 -26.001497 0.000000 0.000000 29.996357 1.998772 21.997282 19.996607 -0.002475 6.997691 -0.271013 -0.945988 -0.003008 -9.180441 -0.197558 16.983719 0.039082 0.000000 0.000000 14.001234 -49.002811 -22.001631 -14.000520 0.000000 0.000000 0.054524 -0.067526 -0.321432 0.000000 0.000000 0.000000 4.110514 69.560089 -54.940792 46.097401 4.997073 -5.000099 0.000000 0.000000 0.000000 -110.024002 0.000000 0.000000 130.994461 -0.000002 0.000001 0.037173 0.000000 0.000000 -67.573723 -16.001459 0.000579 3.236106 -0.000000 0.000000 40.587940 0.000000 0.000000 
